<svg xmlns="http://www.w3.org/2000/svg" width="32.262" height="8.835" viewBox="0 0 32.262 8.835">
  <path id="Icon_ionic-ios-arrow-round-forward" data-name="Icon ionic-ios-arrow-round-forward" d="M6.282,11.421a.6.6,0,0,0,0,.847l2.8,2.8H-20.587a.6.6,0,0,0-.594.6.6.6,0,0,0,.594.6H9.07l-2.8,2.8a.606.606,0,0,0,0,.847.6.6,0,0,0,.842,0l3.791-3.819h0a.672.672,0,0,0,.124-.189.571.571,0,0,0,.046-.23.6.6,0,0,0-.17-.419L7.119,11.435A.586.586,0,0,0,6.282,11.421Z" transform="translate(21.181 -11.252)" fill="#fff"/>
</svg>
