<svg id="dynamic_feed-24px" xmlns="http://www.w3.org/2000/svg" width="24" height="24" viewBox="0 0 24 24">
  <g id="Bounding_Box">
    <rect id="Rectangle_258" data-name="Rectangle 258" width="24" height="24" fill="none"/>
  </g>
  <g id="Flat">
    <g id="Group_435" data-name="Group 435">
      <path id="Path_6343" data-name="Path 6343" d="M8,8H6v7a2.006,2.006,0,0,0,2,2h9V15H8Z" fill="#fff"/>
      <path id="Path_6344" data-name="Path 6344" d="M20,3H12a2.006,2.006,0,0,0-2,2v6a2.006,2.006,0,0,0,2,2h8a2.006,2.006,0,0,0,2-2V5A2.006,2.006,0,0,0,20,3Zm0,8H12V7h8Z" fill="#fff"/>
      <path id="Path_6345" data-name="Path 6345" d="M4,12H2v7a2.006,2.006,0,0,0,2,2h9V19H4Z" fill="#fff"/>
    </g>
  </g>
</svg>
