<svg xmlns="http://www.w3.org/2000/svg" width="18" height="16.002" viewBox="0 0 18 16.002">
  <path id="Path_6390" data-name="Path 6390" d="M12.572-3.222a.246.246,0,0,0-.072.175V.5H1.5v-11H9.047a.248.248,0,0,0,.178-.072l1-1A.252.252,0,0,0,10.047-12H1.5A1.5,1.5,0,0,0,0-10.5V.5A1.5,1.5,0,0,0,1.5,2h11A1.5,1.5,0,0,0,14,.5V-4.044a.251.251,0,0,0-.428-.178Zm4.894-6.306a1.83,1.83,0,0,0,0-2.587l-1.35-1.35a1.824,1.824,0,0,0-2.584,0L5.322-5.259,5.009-2.434A1.291,1.291,0,0,0,6.434-1.009l2.825-.312Zm-3.088.966L8.569-2.756l-2.041.228.228-2.041,5.806-5.809ZM16.4-11.053a.333.333,0,0,1,0,.466l-.966.966-1.816-1.816.966-.966a.326.326,0,0,1,.462,0Z" transform="translate(0 14.002)" fill="#3b3e51"/>
</svg>
