<svg id="twotone-3d_rotation-24px" xmlns="http://www.w3.org/2000/svg" width="35.365" height="35.365" viewBox="0 0 35.365 35.365">
  <path id="Path_3746" data-name="Path 3746" d="M0,0H35.365V35.365H0Z" fill="none"/>
  <path id="Path_3747" data-name="Path 3747" d="M24.825,5.64a.685.685,0,0,1-.339-.088,16.86,16.86,0,0,0-8.208-2.078A16.858,16.858,0,0,0,8.071,5.551a.739.739,0,1,1-.707-1.3,18.749,18.749,0,0,1,17.8-.015.746.746,0,0,1-.339,1.4ZM3.738,13.376a.768.768,0,0,1-.427-.133.735.735,0,0,1-.177-1.031A15.235,15.235,0,0,1,8.66,7.393a17.01,17.01,0,0,1,15.192-.015,15.293,15.293,0,0,1,5.526,4.789.74.74,0,0,1-1.208.855,13.833,13.833,0,0,0-5-4.332A15.527,15.527,0,0,0,9.323,8.7a13.979,13.979,0,0,0-5.01,4.362.642.642,0,0,1-.575.309Zm9.21,17.786a.691.691,0,0,1-.516-.221,14.9,14.9,0,0,1-2.962-3.89,13.081,13.081,0,0,1-1.547-6.4,8.161,8.161,0,0,1,8.34-7.942,8.161,8.161,0,0,1,8.34,7.942.737.737,0,0,1-1.474,0,6.685,6.685,0,0,0-6.867-6.469A6.685,6.685,0,0,0,9.4,20.655a11.544,11.544,0,0,0,1.37,5.673,13.948,13.948,0,0,0,2.726,3.566.757.757,0,0,1,0,1.046.808.808,0,0,1-.545.221Zm10.565-2.726a7.935,7.935,0,0,1-4.568-1.311,7.846,7.846,0,0,1-3.507-6.469.737.737,0,1,1,1.474,0A6.338,6.338,0,0,0,19.771,25.9a6.461,6.461,0,0,0,3.743,1.046,9.738,9.738,0,0,0,1.533-.147.74.74,0,1,1,.251,1.459,10.063,10.063,0,0,1-1.783.177Zm-2.962,3.036a.862.862,0,0,1-.192-.029,11.5,11.5,0,0,1-5.482-3.094,10.752,10.752,0,0,1-3.2-7.692,4.444,4.444,0,0,1,4.539-4.332,4.444,4.444,0,0,1,4.539,4.332,3.072,3.072,0,0,0,6.13,0c0-5.555-4.789-10.064-10.683-10.064a10.758,10.758,0,0,0-9.74,5.938,9.479,9.479,0,0,0-.869,4.126,14.643,14.643,0,0,0,.987,5.32.719.719,0,0,1-.427.943.731.731,0,0,1-.943-.427,16.416,16.416,0,0,1-1.076-5.835,11.07,11.07,0,0,1,1-4.774A12.229,12.229,0,0,1,16.2,9.1c6.7,0,12.157,5.172,12.157,11.538a4.543,4.543,0,0,1-9.077,0,2.967,2.967,0,0,0-3.065-2.859,2.967,2.967,0,0,0-3.065,2.859,9.28,9.28,0,0,0,2.756,6.646,10.02,10.02,0,0,0,4.819,2.726.731.731,0,0,1,.516.9A.719.719,0,0,1,20.552,31.471Z" transform="translate(1.419 0.947)" fill="#fff"/>
</svg>
