<svg id="placeholder" xmlns="http://www.w3.org/2000/svg" width="8.823" height="11" viewBox="0 0 8.823 11">
  <g id="Group_100" data-name="Group 100">
    <path id="Path_192" data-name="Path 192" d="M51.609,0A4.415,4.415,0,0,0,47.2,4.409a4.34,4.34,0,0,0,.078.828c0,.016.012.065.03.148a4.343,4.343,0,0,0,.3.869,12.36,12.36,0,0,0,3.812,4.677.312.312,0,0,0,.392,0,12.384,12.384,0,0,0,3.812-4.677,4.293,4.293,0,0,0,.3-.869c.018-.083.028-.131.03-.148a4.535,4.535,0,0,0,.078-.828A4.422,4.422,0,0,0,51.609,0Zm3.717,5.129s0,.009,0,.014-.009.046-.021.1v0A3.661,3.661,0,0,1,55.048,6s0,.007,0,.009a11.535,11.535,0,0,1-3.434,4.28,11.535,11.535,0,0,1-3.434-4.28s0-.007,0-.009a3.905,3.905,0,0,1-.256-.752v0c-.014-.053-.018-.088-.021-.1s0-.009,0-.016a3.786,3.786,0,1,1,7.435,0Z" transform="translate(-47.2)" fill="#0288d1"/>
    <path id="Path_193" data-name="Path 193" d="M119.8,71.9a2.8,2.8,0,1,0,2.8,2.8A2.8,2.8,0,0,0,119.8,71.9Zm0,4.977a2.177,2.177,0,1,1,2.177-2.177A2.179,2.179,0,0,1,119.8,76.877Z" transform="translate(-115.39 -70.242)" fill="#0288d1"/>
  </g>
</svg>
