<svg id="microscope" xmlns="http://www.w3.org/2000/svg" xmlns:xlink="http://www.w3.org/1999/xlink" width="32.247" height="39.847" viewBox="0 0 32.247 39.847">
  <defs>
    <linearGradient id="linear-gradient" x1="0.5" x2="0.5" y2="1" gradientUnits="objectBoundingBox">
      <stop offset="0" stop-color="#626cfe"/>
      <stop offset="1" stop-color="#9940f1"/>
    </linearGradient>
  </defs>
  <rect id="Rectangle_676" data-name="Rectangle 676" width="15.585" height="9.922" transform="translate(26.123 8.893) rotate(135)" fill="url(#linear-gradient)"/>
  <g id="Group_1542" data-name="Group 1542">
    <path id="Path_1214" data-name="Path 1214" d="M172.665,480.116H152.82a1.24,1.24,0,0,0,0,2.48h19.844a1.24,1.24,0,1,0,0-2.48Z" transform="translate(-143.583 -442.75)" fill="#4d4d4d"/>
    <path id="Path_1215" data-name="Path 1215" d="M67.427,37.365a13.641,13.641,0,0,0,6.458-25.658L75.822,9.77a1.24,1.24,0,0,0,0-1.754l-.877-.877L76.46,5.625a1.24,1.24,0,0,0,0-1.754L72.953.363a1.239,1.239,0,0,0-1.754,0L69.684,1.878,68.808,1a1.239,1.239,0,0,0-1.754,0L56.031,12.02a1.239,1.239,0,0,0,0,1.754l.877.877L54.03,17.529a1.239,1.239,0,0,0,0,1.754l3.508,3.508a1.24,1.24,0,0,0,1.754,0l2.879-2.879.877.877a1.24,1.24,0,0,0,1.754,0l7.235-7.235A11.161,11.161,0,1,1,56.907,27.441h3.078a1.24,1.24,0,0,0,0-2.481H50.063a1.24,1.24,0,1,0,0,2.481H54.3A13.641,13.641,0,0,0,67.427,37.365Zm-3.5-19.206-.877-.877a1.239,1.239,0,0,0-1.754,0l-2.879,2.879-1.754-1.754,2.879-2.879a1.24,1.24,0,0,0,0-1.754l-.877-.877,9.266-9.266.877.877a1.24,1.24,0,0,0,1.754,0l1.514-1.514,1.754,1.754L72.314,6.262a1.241,1.241,0,0,0,0,1.754l.877.877Z" transform="translate(-48.823 0)" fill="#4d4d4d"/>
  </g>
</svg>
