<svg id="nurse" xmlns="http://www.w3.org/2000/svg" xmlns:xlink="http://www.w3.org/1999/xlink" width="41.173" height="29.925" viewBox="0 0 41.173 29.925">
  <defs>
    <linearGradient id="linear-gradient" x1="0.5" x2="0.5" y2="1" gradientUnits="objectBoundingBox">
      <stop offset="0" stop-color="#626cfe"/>
      <stop offset="1" stop-color="#9940f1"/>
    </linearGradient>
  </defs>
  <path id="Path_1211" data-name="Path 1211" d="M176.212,197.975h-5.1v-5.1h-5.1v5.1h-5.1v5.1h5.1v5.1h5.1v-5.1h5.1Z" transform="translate(-147.982 -184.992)" fill="url(#linear-gradient)"/>
  <g id="Group_1541" data-name="Group 1541">
    <path id="Path_1212" data-name="Path 1212" d="M480.265,201.925h.008Z" transform="translate(-441.643 -191.31)" fill="#4d4d4d"/>
    <path id="Path_1213" data-name="Path 1213" d="M38.623,80.548a54.9,54.9,0,0,0-5.3-1.5v-4.5a3.819,3.819,0,0,0-3.132-3.774,55.8,55.8,0,0,0-9.609-.84,55.227,55.227,0,0,0-9.614.859,3.818,3.818,0,0,0-3.125,3.773v4.477a54.347,54.347,0,0,0-5.305,1.51l-.01,0A3.814,3.814,0,0,0,0,84.16a4.4,4.4,0,0,0,.3,1.6l5.021,11.9h0a4.033,4.033,0,0,0,3.528,2.2,4.171,4.171,0,0,0,1.167-.232l.022-.037a35.485,35.485,0,0,1,21.089-.023l.02,0a4,4,0,0,0,1.168.169,3.785,3.785,0,0,0,3.529-2.321h0l5.02-11.773,0-.005a3.848,3.848,0,0,0,.3-1.494A3.775,3.775,0,0,0,38.623,80.548Zm-.1,4.1L33.505,96.418l-.008.018a1.229,1.229,0,0,1-1.179.753l-.436-.065h0a38.1,38.1,0,0,0-22.6,0h0l-.437.065a1.228,1.228,0,0,1-1.179-.753l-.008-.019L2.645,84.644l-.1-.484a1.269,1.269,0,0,1,.824-1.2,52.854,52.854,0,0,1,10.966-2.473,1.274,1.274,0,0,0-.3-2.53h0c-1.223.143-2.439.34-3.65.563V74.565A1.273,1.273,0,0,1,11.413,73.3a52.269,52.269,0,0,1,18.343-.019,1.274,1.274,0,0,1,1.022,1.264v3.975c-1.2-.222-2.408-.417-3.618-.559a1.274,1.274,0,1,0-.3,2.53,53.285,53.285,0,0,1,10.946,2.471l.008,0a1.233,1.233,0,0,1,.809,1.18Z" transform="translate(0 -69.932)" fill="#4d4d4d"/>
  </g>
</svg>
