<svg xmlns="http://www.w3.org/2000/svg" width="26" height="26" viewBox="0 0 26 26">
  <g id="Group_3437" data-name="Group 3437" transform="translate(-385 -531)">
    <circle id="Ellipse_12" data-name="Ellipse 12" cx="13" cy="13" r="13" transform="translate(385 531)" fill="#f5f5f5"/>
    <path id="Path_5608" data-name="Path 5608" d="M-.281-6.75A8.719,8.719,0,0,0-9-15.469,8.719,8.719,0,0,0-17.719-6.75,8.719,8.719,0,0,0-9,1.969,8.719,8.719,0,0,0-.281-6.75Zm-9.727,4.617a.563.563,0,0,1-.8,0L-14.46-5.79a.563.563,0,0,1,0-.8l.8-.8a.563.563,0,0,1,.8,0l2.463,2.463,5.275-5.275a.562.562,0,0,1,.8,0l.8.8a.563.563,0,0,1,0,.8Z" transform="translate(407 551)" fill="#ff2424"/>
  </g>
</svg>
